:SAMPLES-PER-SECOND 30
:FULLY-SPECIFIED
:DEGREES
844
root  25.5569 38.2308 6.06014 -152.649 -81.4623 147.539
RightUpLeg  -17.7954 -8.70833 -8.13903
RightLeg  -1.31478 8.64639 -0.999271
RightFoot  -6.15396 -0.509952 10.2938
RightToes  6.35927e-011 1.30204e-014 -6.03759e-014
Spine  8.82453 -0.467538 1.29838
Spine1  9.04513 1.25579 -6.86775
HEad  -11.8051 -7.28176 -3.34808
LeftShoulder1  -0.443394 4.71333 -30.5125
LeftArm  2.28776 7.17967 -39.5797
LeftForeArm  14.6362 -24.2553 -4.41726
LeftHand  0.00349564 6.06057 5.24744
RightShoulder  -0.534201 -5.0673 27.3678
RightArm  18.1056 -7.54486 47.7358
RightForeArm  2.1155 17.8185 5.35148
RightHand  -0.347963 3.4747 -4.80391
LeftUpLeg  11.6148 6.88441 -4.64792
LeftLeg  12.8004 0.0211311 -0.531861
LeftFoot  -19.1959 0.536353 6.13132
LeftToes  -7.16024e-010 4.79583e-011 -5.98286e-011
845
root  24.4706 38.033 5.68094 -151.701 -82.123 146.361
RightUpLeg  -18.7429 -8.41018 -7.70021
RightLeg  1.40141 7.53023 -0.618398
RightFoot  -3.85108 -0.570153 8.42386
RightToes  6.35927e-011 1.30204e-014 -6.03759e-014
Spine  9.10863 -0.528098 2.12203
Spine1  9.50419 1.09405 -6.22541
HEad  -12.6195 -7.09859 -3.66631
LeftShoulder1  -0.461703 4.75491 -30.7591
LeftArm  3.0634 7.3837 -39.5498
LeftForeArm  13.8093 -22.766 -4.28768
LeftHand  0.0207497 6.45351 5.3801
RightShoulder  -0.551667 -5.10976 27.5672
RightArm  16.4623 -7.53046 47.3046
RightForeArm  3.9758 14.9629 5.99222
RightHand  -0.334176 3.16758 -4.76751
LeftUpLeg  13.8831 6.87694 -3.87404
LeftLeg  12.6274 -0.788851 -0.109045
LeftFoot  -20.7295 0.566244 5.3756
LeftToes  -7.16024e-010 4.79583e-011 -5.98286e-011
846
root  23.3261 37.814 5.27201 -153.097 -83.1977 147.738
RightUpLeg  -20.3416 -7.45917 -7.09688
RightLeg  7.39429 5.14775 -0.0396491
RightFoot  0.906889 -0.671458 6.28066
RightToes  6.35927e-011 1.30204e-014 -6.03759e-014
Spine  9.25594 -0.783864 3.50738
Spine1  9.83702 0.76728 -5.53986
HEad  -13.6005 -6.94759 -3.97888
LeftShoulder1  -0.464513 4.75672 -30.9309
LeftArm  2.89754 7.83416 -39.723
LeftForeArm  13.7564 -20.7916 -4.58013
LeftHand  0.0397523 6.96489 5.22225
RightShoulder  -0.576865 -5.17719 27.7121
RightArm  14.2562 -7.55773 46.8474
RightForeArm  6.42318 12.3073 6.39813
RightHand  -0.31542 2.97521 -4.60375
LeftUpLeg  15.7119 6.26441 -2.77186
LeftLeg  13.0542 -1.14618 0.602689
LeftFoot  -22.2768 0.571886 4.56849
LeftToes  -7.16024e-010 4.79583e-011 -5.98286e-011
847
root  22.1142 37.5747 4.84383 -158.62 -84.5947 153.232
RightUpLeg  -21.7277 -6.38757 -6.36779
RightLeg  13.6877 3.36977 0.567781
RightFoot  4.76323 -0.728977 5.36865
RightToes  6.35927e-011 1.30204e-014 -6.03759e-014
Spine  9.50021 -1.23752 5.4424
Spine1  9.83141 0.301224 -5.05081
HEad  -15.3049 -4.57175 -5.04497
LeftShoulder1  -0.445002 4.69852 -31.1069
LeftArm  1.91918 8.61824 -39.9535
LeftForeArm  14.7748 -18.6417 -5.25404
LeftHand  0.0553921 7.47136 4.9665
RightShoulder  -0.587402 -5.203 27.8171
RightArm  12.2619 -7.80489 46.2344
RightForeArm  8.07058 10.3147 6.37899
RightHand  -0.299859 2.86143 -4.44052
LeftUpLeg  16.9858 4.38211 -1.50481
LeftLeg  14.8829 -0.163975 1.30475
LeftFoot  -23.5764 0.506892 3.41816
LeftToes  -7.16024e-010 4.79583e-011 -5.98286e-011
848
root  20.8709 37.3934 4.40712 -170.048 -85.7754 164.442
RightUpLeg  -22.4569 -6.3569 -5.06583
RightLeg  19.338 3.47901 1.17531
RightFoot  5.03756 -0.58002 4.24086
RightToes  6.35927e-011 1.30204e-014 -6.03759e-014
Spine  9.92788 -1.69842 7.53894
Spine1  9.69366 -0.140594 -4.56681
HEad  -18.5409 3.67686 -8.07375
LeftShoulder1  -0.412515 4.6029 -31.3951
LeftArm  0.637327 9.57869 -40.1127
LeftForeArm  16.7874 -16.5133 -6.04493
LeftHand  0.0602332 7.74955 4.69936
RightShoulder  -0.58694 -5.19356 27.9798
RightArm  11.1021 -7.93877 45.4082
RightForeArm  8.28961 8.87399 6.2297
RightHand  -0.29324 2.79075 -4.37976
LeftUpLeg  17.8949 1.09166 -0.43304
LeftLeg  17.9197 2.02963 1.59686
LeftFoot  -24.2027 0.210683 0.587524
LeftToes  -7.16024e-010 4.79583e-011 -5.98286e-011
849
root  19.666 37.3241 3.9635 174.801 -86.3878 179.511
RightUpLeg  -22.5714 -6.5748 -3.56921
RightLeg  23.8321 3.59906 1.51408
RightFoot  2.80672 -0.234876 2.02692
RightToes  6.35927e-011 1.30204e-014 -6.03759e-014
Spine  10.2072 -2.01993 9.37234
Spine1  9.57587 -0.426285 -3.79861
HEad  -18.9172 5.05589 -8.91631
LeftShoulder1  -0.387985 4.52804 -31.7429
LeftArm  -0.725884 10.5339 -40.2117
LeftForeArm  19.6801 -14.5296 -6.74994
LeftHand  0.0541266 7.94184 4.15455
RightShoulder  -0.602865 -5.22857 28.2085
RightArm  10.7564 -7.7062 44.6141
RightForeArm  7.82849 7.7018 6.17259
RightHand  -0.288091 2.71584 -4.34085
LeftUpLeg  17.7179 -1.15235 0.859799
LeftLeg  22.3467 2.61944 1.4439
LeftFoot  -23.4234 -0.25365 -3.79175
LeftToes  -7.16024e-010 4.79583e-011 -5.98286e-011
850
root  18.5486 37.3541 3.51974 158.097 -86.7377 -163.362
RightUpLeg  -22.3468 -6.57272 -2.15322
RightLeg  26.677 2.8621 1.33515
RightFoot  0.287601 -0.0274661 0.312966
RightToes  6.35927e-011 1.30204e-014 -6.03759e-014
Spine  10.0778 -2.27198 10.9622
Spine1  9.31304 -0.587118 -2.85464
HEad  -18.1369 4.92822 -8.52985
LeftShoulder1  -0.380473 4.50299 -31.9422
LeftArm  -1.91487 11.4847 -40.4586
LeftForeArm  22.7598 -13.0678 -7.16585
LeftHand  0.0378803 8.31112 3.12927
RightShoulder  -0.63057 -5.30436 28.2994
RightArm  10.6756 -7.36053 44.2166
RightForeArm  7.555 6.99034 6.13614
RightHand  -0.280792 2.58651 -4.2958
LeftUpLeg  15.1146 -1.37188 2.75552
LeftLeg  29.2688 1.60467 1.32367
LeftFoot  -19.4439 -0.376105 -6.99461
LeftToes  -7.16024e-010 4.79583e-011 -5.98286e-011
851
root  17.4876 37.4934 3.07743 139.138 -87.0357 -143.751
RightUpLeg  -21.5275 -6.71583 -0.928461
RightLeg  27.7596 2.15647 0.998205
RightFoot  -1.76743 -0.0158607 0.0632874
RightToes  6.35927e-011 1.30204e-014 -6.03759e-014
Spine  9.72807 -2.45593 12.1809
Spine1  8.78254 -0.717136 -2.1308
HEad  -17.1423 4.48308 -8.0249
LeftShoulder1  -0.374579 4.48921 -31.8767
LeftArm  -2.43124 12.4198 -41.0359
LeftForeArm  24.8469 -12.6734 -7.19946
LeftHand  0.00933172 8.72265 1.87351
RightShoulder  -0.637794 -5.33427 28.128
RightArm  10.5685 -7.12833 44.194
RightForeArm  7.27902 7.22426 6.10283
RightHand  -0.284588 2.48593 -4.39877
LeftUpLeg  10.4365 -1.085 4.59295
LeftLeg  37.9444 2.01405 2.09403
LeftFoot  -10.4931 0.08715 -6.84892
LeftToes  -7.16024e-010 4.79583e-011 -5.98286e-011
852
root  16.4956 37.6917 2.66795 117.15 -87.1433 -121.431
RightUpLeg  -19.8964 -7.2358 0.10343
RightLeg  27.6653 1.87016 0.826353
RightFoot  -3.62117 -0.0446626 0.290048
RightToes  6.35927e-011 1.30204e-014 -6.03759e-014
Spine  9.66909 -2.58147 13.2316
Spine1  8.35094 -0.756187 -1.65953
HEad  -16.5975 3.93948 -7.68115
LeftShoulder1  -0.356655 4.44679 -31.6874
LeftArm  -1.75693 13.0848 -41.7918
LeftForeArm  25.0718 -13.5284 -6.94311
LeftHand  -0.0185407 8.80436 0.939771
RightShoulder  -0.625085 -5.30926 27.9001
RightArm  10.9825 -6.74897 44.1414
RightForeArm  6.21022 8.58904 6.20522
RightHand  -0.307713 2.5759 -4.69203
LeftUpLeg  5.1311 -0.527171 6.07352
LeftLeg  46.3328 3.19606 3.9962
LeftFoot  -0.0204125 0.431296 -4.35981
LeftToes  -7.16024e-010 4.79583e-011 -5.98286e-011
